<?xml version="1.0" standalone="no"?><!-- Generator: Gravit.io --><svg xmlns="http://www.w3.org/2000/svg" xmlns:xlink="http://www.w3.org/1999/xlink" style="isolation:isolate" viewBox="0 0 400 400" width="400" height="400"><defs><clipPath id="_clipPath_Y3J7pjpV50xp8vQowucHR7egANx2b7GS"><rect width="400" height="400"/></clipPath></defs><g clip-path="url(#_clipPath_Y3J7pjpV50xp8vQowucHR7egANx2b7GS)"><path d=" M 222.065 40.046 L 265.607 40.046 L 342.562 172.709 L 298.942 172.709 L 222.065 40.046 Z " fill="rgb(2,6,9)"/><path d=" M 168.083 125.898 L 214.54 44.688 L 291.14 176.61 L 242.201 261.721 L 219.859 223.776 L 246.812 177.319 L 218.44 126.962 L 168.083 125.898 Z " fill="rgb(2,6,9)"/><path d=" M 136.876 172.709 L 234.399 172.709 L 212.412 135.118 L 115.243 135.118 L 136.876 172.709 Z " fill="rgb(2,6,9)"/><path d=" M 52.474 308.887 L 129.075 176.964 L 107.442 138.664 L 30.842 270.586 L 52.474 308.887 Z " fill="rgb(2,6,9)"/><path d=" M 60.275 312.788 L 136.522 181.221 L 234.4 181.221 L 212.412 220.229 L 157.445 219.52 L 127.301 271.297 L 152.479 312.788 L 60.275 312.788 Z " fill="rgb(2,6,9)"/><path d=" M 138.294 270.232 L 160.281 231.932 L 209.575 317.044 L 187.588 356.052 L 138.294 270.232 Z " fill="rgb(2,6,9)"/><path d=" M 168.083 228.741 L 212.767 228.741 L 240.073 275.906 L 298.941 275.906 L 323.057 233.351 L 369.158 312.788 L 217.022 312.788 L 168.083 228.741 Z " fill="rgb(2,6,9)"/><path d=" M 195.744 359.954 L 217.731 321.654 L 369.158 321.654 L 347.526 359.954 L 195.744 359.954 Z " fill="rgb(2,6,9)"/><path d=" M 249.294 265.977 L 298.587 181.22 L 342.562 181.22 L 293.622 265.977 L 249.294 265.977 Z " fill="rgb(2,6,9)"/></g></svg>